<svg xmlns="http://www.w3.org/2000/svg" viewBox="0 0 2481.46 760.48"><defs><style>.cls-1,.cls-10,.cls-11,.cls-12,.cls-13,.cls-14,.cls-15,.cls-16,.cls-17,.cls-18,.cls-19,.cls-2,.cls-20,.cls-21,.cls-22,.cls-23,.cls-24,.cls-25,.cls-26,.cls-27,.cls-28,.cls-29,.cls-3,.cls-30,.cls-31,.cls-32,.cls-33,.cls-4,.cls-5,.cls-6,.cls-7,.cls-8,.cls-9{fill:none;stroke-miterlimit:10;}.cls-1{stroke:#08fcff;}.cls-2{stroke:#10f8ff;}.cls-3{stroke:#18f5ff;}.cls-4{stroke:#20f2ff;}.cls-5{stroke:#28eeff;}.cls-6{stroke:#2febff;}.cls-7{stroke:#37e7ff;}.cls-8{stroke:#3fe4ff;}.cls-9{stroke:#47e1ff;}.cls-10{stroke:#4fddff;}.cls-11{stroke:#57daff;}.cls-12{stroke:#5ed2fd;}.cls-13{stroke:#65cafb;}.cls-14{stroke:#6dc2f9;}.cls-15{stroke:#74baf7;}.cls-16{stroke:#7bb2f5;}.cls-17{stroke:#82abf2;}.cls-18{stroke:#89a3f0;}.cls-19{stroke:#909bee;}.cls-20{stroke:#9893ec;}.cls-21{stroke:#9f8bea;}.cls-22{stroke:#a683e8;}.cls-23{stroke:#ae80dc;}.cls-24{stroke:#b67dd1;}.cls-25{stroke:#be7ac5;}.cls-26{stroke:#c677ba;}.cls-27{stroke:#ce74ae;}.cls-28{stroke:#d772a3;}.cls-29{stroke:#df6f97;}.cls-30{stroke:#e76c8c;}.cls-31{stroke:#ef6980;}.cls-32{stroke:#f76675;}.cls-33{stroke:#ff6369;}</style></defs><title>Asset 8</title><g id="Layer_2" data-name="Layer 2"><g id="Layer_1-2" data-name="Layer 1"><path class="cls-1" d="M149.76,288.2C299.19,151.26-14.47,3.38,182.9.55,587.46-5.24,1228.46,468.08,1672.31,482.91c213.83,7.14,414.9-78.69,581.22-181.54"/><path class="cls-2" d="M171.5,353.49C320.93,216.55,40.41,59.7,237.79,56.87c393.8-5.63,1001.45,446.67,1432.88,473.44,205.09,12.73,398.95-60.95,561.63-153.42"/><path class="cls-3" d="M192.92,419.75C342.35,282.81,95,117,292.35,114.17c383-5.48,957.3,425.65,1376.35,464.53,196.33,18.22,383-43.21,542.05-125.32"/><path class="cls-4" d="M214.41,486C363.84,349,149.6,174.26,347,171.43c372.29-5.32,913.12,404.43,1319.82,455.62,187.57,23.61,367.06-25.47,522.48-97.21"/><path class="cls-5" d="M195.77,514.12c149.42-136.93-31.67-320.68,165.7-323.51,361.53-5.17,868.92,383,1263.29,446.71,178.79,28.89,351.11-7.74,502.9-69.1"/><path class="cls-6" d="M163.2,528.4C312.62,391.46,164.67,198.75,362,195.92c350.78-5,824.72,361.3,1206.75,437.79,170,34,335.17,10,483.33-41"/><path class="cls-7" d="M130.62,541.44c149.43-136.93,34.62-338.61,232-341.43,340-4.87,780.58,339.32,1150.22,428.87C1674.11,668,1832.05,656.63,1976.58,616"/><path class="cls-8" d="M98.05,552.79c149.43-136.94,67.76-347.58,265.13-350.41,329.26-4.71,736.52,317,1093.69,420,152.57,44,303.27,45.48,444.17,15.23"/><path class="cls-9" d="M65.48,561.89C214.91,425,166.38,205.34,363.75,202.52c318.51-4.56,692.61,294.4,1037.16,411.05,143.92,48.73,287.32,63.22,424.59,43.34"/><path class="cls-10" d="M32.91,568.4C182.34,431.46,167,202.89,364.32,200.07c307.75-4.41,648.92,271.4,980.62,402.14,135.37,53.35,271.38,81,405,71.45"/><path class="cls-11" d="M.34,572.45C149.77,435.52,167.52,198,364.89,195.16,780.2,189.21,1218.08,684.92,1674.41,688"/><path class="cls-12" d="M21.35,567.34C164.76,436,214.75,234.11,413.05,225.46c17.31-.76,34.61,1.25,51.53-.78,284.85-34.1,489,205.39,770.38,328.15C1400.4,625,1571,681.88,1738.39,672.6"/><path class="cls-13" d="M42.36,560.65C179.75,434.83,262,268.57,461.21,254.19c17.66-1.28,35.15-1.2,52.08-3.26,328.36-40,474.55,209.64,775.91,317.92,168.37,60.5,345.55,106.5,513.17,86.82"/><path class="cls-14" d="M63.37,555.85c131.37-120.26,245.87-251,446-271,18-1.81,35.81-2.38,52.63-5.75,370.71-74.25,459.41,214.64,781.45,307.7,170.89,49.39,355,84,522.9,53.88"/><path class="cls-15" d="M84.38,550.68C209.73,436,356.5,340.64,557.53,315.06c18.37-2.34,36.46-3.72,53.18-8.24,412.82-111.48,443.78,220.5,787,297.48,173.13,38.83,364.5,61.4,532.64,20.94"/><path class="cls-16" d="M105.39,544.47C224.72,435.32,403.74,375.32,605.7,344.26c18.72-2.88,37.06-5.16,53.72-10.72,454.1-151.47,427.83,227.31,792.52,287.26,175.19,28.8,374,38.85,542.38-12"/><path class="cls-17" d="M126.4,536.59C239.71,433,451,408.27,653.86,371.81c19.07-3.43,37.64-6.68,54.27-13.21,494.2-194,411.75,235.1,798.05,277,177.21,19.23,383.46,16.31,552.12-44.94"/><path class="cls-18" d="M147.42,526.65c107.28-98,350.78-87.57,554.6-129.36,19.42-4,38.18-8.25,54.82-15.7C1289.76,143,1152.53,625.48,1560.43,648.4c179.22,10.06,392.93-6.24,561.85-77.89"/><path class="cls-19" d="M168.43,515.06c101.26-92.47,377-46.89,581.75-93.95,19.77-4.54,38.68-9.83,55.38-18.18C1375.72,117.74,1186,635.15,1614.67,659.51c181,10.29,402.41-28.78,571.59-110.82"/><path class="cls-20" d="M189.44,501.71c95.24-86.91,403.13-6.25,608.9-58.53,20.12-5.11,39.14-11.44,55.93-20.67,606-333.35,364.09,264.25,814.64,246.36,183.56-7.29,411.9-51.33,581.33-143.77"/><path class="cls-21" d="M210.45,488.58c89.22-81.35,429.19,34,636.05-23.11,20.46-5.71,39.57-13.05,56.48-23.16C1543.29,59.46,1251.73,718,1723.16,678.45c185.93-15.59,421.37-73.88,591.06-176.7"/><path class="cls-22" d="M231.46,475.36C323,392,764.29,582.67,951.69,462,1625,28.57,1285.47,749.86,1777.4,687.94c188.48-23.72,430.85-96.43,600.8-209.65"/><path class="cls-23" d="M222.1,500.09c89.17-81.27,520.08,89.69,719.27-28.11,658-389.11,386.07,244,844.17,194.73,122.8-13.2,124.3,16,260.46-18.34,117.18-29.59,248.47-94.68,341.56-156.7"/><path class="cls-24" d="M212.74,505c86.82-79.16,506.83,71.86,718.32-42.87,640.36-347.39,438.87,204,862.61,163.53,151.91-14.51,47.25,66.92,215.17,34.05,127.91-25,287.31-107.34,388.08-174.47"/><path class="cls-25" d="M203.37,505.42c84.47-77.05,493.12,53.69,717.37-57.64,620.72-308.16,491.92,166.05,881.06,132.34,181.07-15.69-30,117,169.88,86.44,138.44-21.2,326.15-120,434.6-192.25"/><path class="cls-26" d="M194,505.52c82.12-74.94,479,35.05,716.42-72.41,599.47-271.3,545.08,129.31,899.5,101.15,210.25-16.7-107.41,166.54,124.59,138.83,148.91-17.78,365-132.64,481.13-210"/><path class="cls-27" d="M184.65,505.81c79.77-72.82,464.41,15.8,715.47-87.18,576.93-236.65,598.31,93.33,917.94,70,239.46-17.5-184.81,215.51,79.3,191.21C2056.72,665.16,2301.18,534.51,2425,452"/><path class="cls-28" d="M175.28,506.51c77.42-70.72,449.49-4.23,714.52-101.95,553.44-204.06,651.6,57.85,936.4,38.77,268.68-18-262.22,264.06,34,243.61,169.83-11.72,442.66-158,574.17-245.58"/><path class="cls-29" d="M165.92,507.82C241,439.21,600.15,482.6,879.49,391.1c529.28-173.38,704.89,22.74,954.84,7.58,297.94-18.07-339.59,312.25-11.28,296,180.31-8.93,481.48-170.62,620.68-263.35"/><path class="cls-30" d="M156.56,510.14c72.71-66.5,418.69-47.38,712.61-131.49,504.76-144.44,758.21-12.1,973.29-23.61,327.24-17.5-416.94,360.15-56.57,348.39,190.83-6.23,520.32-183.27,667.21-281.13"/><path class="cls-31" d="M147.2,514.64c70.36-64.38,402.92-70.95,711.66-146.25,480.16-117.13,811.5-46.75,991.73-54.8,356.56-15.93-494.25,407.8-101.86,400.77,201.38-3.6,559.16-195.92,713.73-298.9"/><path class="cls-32" d="M137.83,527.72c68-62.28,387-96.21,710.71-161,455.81-91.27,864.78-81.24,1010.18-86,385.93-12.62-571.53,455.25-147.15,453.16,212-1,598-208.58,760.25-316.68"/><path class="cls-33" d="M128.47,547.39c149.43-136.94,1541-290.15,1738.39-293,415.31-5.95-648.78,502.52-192.45,505.55,222.54,1.48,636.83-221.24,806.78-334.46"/></g></g></svg>