<svg xmlns="http://www.w3.org/2000/svg" viewBox="30 0 1090 630.76"><defs><style>.cls-1,.cls-10,.cls-11,.cls-12,.cls-13,.cls-14,.cls-15,.cls-16,.cls-17,.cls-18,.cls-19,.cls-2,.cls-20,.cls-21,.cls-22,.cls-23,.cls-24,.cls-25,.cls-26,.cls-27,.cls-28,.cls-29,.cls-3,.cls-30,.cls-31,.cls-32,.cls-33,.cls-4,.cls-5,.cls-6,.cls-7,.cls-8,.cls-9{fill:none;stroke-miterlimit:10;}.cls-1{stroke:#08fcff;}.cls-2{stroke:#10f8ff;}.cls-3{stroke:#18f5ff;}.cls-4{stroke:#20f2ff;}.cls-5{stroke:#28eeff;}.cls-6{stroke:#2febff;}.cls-7{stroke:#37e7ff;}.cls-8{stroke:#3fe4ff;}.cls-9{stroke:#47e1ff;}.cls-10{stroke:#4fddff;}.cls-11{stroke:#57daff;}.cls-12{stroke:#5ed2fd;}.cls-13{stroke:#65cafb;}.cls-14{stroke:#6dc2f9;}.cls-15{stroke:#74baf7;}.cls-16{stroke:#7bb2f5;}.cls-17{stroke:#82abf2;}.cls-18{stroke:#89a3f0;}.cls-19{stroke:#909bee;}.cls-20{stroke:#9893ec;}.cls-21{stroke:#9f8bea;}.cls-22{stroke:#a683e8;}.cls-23{stroke:#ae80dc;}.cls-24{stroke:#b67dd1;}.cls-25{stroke:#be7ac5;}.cls-26{stroke:#c677ba;}.cls-27{stroke:#ce74ae;}.cls-28{stroke:#d772a3;}.cls-29{stroke:#df6f97;}.cls-30{stroke:#e76c8c;}.cls-31{stroke:#ef6980;}.cls-32{stroke:#f76675;}.cls-33{stroke:#ff6369;}</style></defs><title>Asset 6</title><g id="Layer_2" data-name="Layer 2"><g id="Layer_1-2" data-name="Layer 1"><path class="cls-1" d="M23.2,221.84C100.07,113.16-67.28,2.78,34.26.54c213.65-4.72,549.48,387.62,784.23,390C933,391.74,1040.14,314,1127.56,224.17"/><path class="cls-2" d="M21.67,239.94C98.54,131.25-57.76,20.77,43.78,18.53,257.43,13.81,582.2,406.26,817,408.66c114.48,1.18,221.64-76.53,309.07-166.39"/><path class="cls-3" d="M20.24,258C97.11,149.35-48.12,38.76,53.41,36.52,267.06,31.8,580.78,424.36,815.53,426.76c114.49,1.17,221.65-76.53,309.07-166.4"/><path class="cls-4" d="M21.16,276.14C98,167.45-36.15,56.75,65.38,54.5c213.66-4.71,516.31,388,751.07,390.36,114.48,1.17,221.64-76.54,309.07-166.4"/><path class="cls-5" d="M24.26,294.23C101.13,185.55-22,74.73,79.54,72.49,293.2,67.77,584.8,460.55,819.55,463c114.48,1.17,221.65-76.54,309.07-166.4"/><path class="cls-6" d="M24.82,312.55C101.69,203.86-10.37,92.94,91.16,90.7c213.65-4.72,494.2,388.16,729,390.57,114.49,1.17,221.65-76.53,309.07-166.4"/><path class="cls-7" d="M24.82,330.91C101.69,222.22.68,111.19,102.22,109c213.65-4.72,483.14,388.28,717.89,390.68,114.49,1.18,221.65-76.53,309.07-166.39"/><path class="cls-8" d="M24.82,349.27c76.87-108.69-13.08-219.83,88.46-222.07C326.93,122.48,585.36,515.59,820.11,518c114.49,1.17,221.65-76.54,309.07-166.4"/><path class="cls-9" d="M24.82,367.63c76.87-108.68-2-219.93,99.51-222.18C338,140.74,585.36,534,820.11,536.36c114.49,1.17,221.65-76.54,309.07-166.4"/><path class="cls-10" d="M24.82,386c76.87-108.69,9-220,110.57-222.29,213.65-4.72,450,388.6,684.72,391,114.49,1.17,221.65-76.53,309.07-166.4"/><path class="cls-11" d="M24.82,404.36C101.69,295.67,44.91,184.2,146.45,182c213.65-4.72,438.91,388.72,673.66,391.12,114.49,1.18,221.65-76.53,309.07-166.39"/><path class="cls-12" d="M24.82,400.24C99,295.41,68.31,210.38,169.07,197.09c226.54-29.87,414.62,374.15,651,371.87,112.89-.65,221.65-76.53,309.07-166.4"/><path class="cls-13" d="M24.82,397.17C96.28,296.21,92,236.7,191.7,213.28,432,156.83,582,572,820.11,565.89c111.29-2.86,221.65-76.54,309.07-166.4"/><path class="cls-14" d="M24.82,395.1C93.57,298,115.71,263.23,214.32,230.47c254.44-84.53,366,343.86,605.79,333.35,109.69-4.8,221.65-76.53,309.07-166.39"/><path class="cls-15" d="M24.82,394c66-93.23,114.52-103.89,212.13-145.37,268.34-114,341.66,329.08,583.16,314.1,108.08-6.71,221.65-76.54,309.07-166.4"/><path class="cls-16" d="M24.82,393.72c63.33-89.36,138-76.37,234.76-126.12C541.31,122.82,576.91,582,820.11,562.45c106.47-8.57,221.65-76.54,309.07-166.4"/><path class="cls-17" d="M24.82,394.22C85.45,308.72,186,345.05,282.2,287.35c294.41-176.55,293,299.82,537.91,275.59,104.87-10.38,221.65-76.54,309.07-166.4"/><path class="cls-18" d="M24.82,395.35c57.92-81.63,184.16-22.16,280-87.61C611.13,98.61,573.54,593.07,820.11,564.07c103.27-12.14,221.65-76.53,309.07-166.39"/><path class="cls-19" d="M24.82,397c55.21-77.77,206.92,4.73,302.64-68.35,317.39-242.33,244.41,271,492.65,237.08,101.68-13.88,221.65-76.54,309.07-166.4"/><path class="cls-20" d="M24.82,399.13c52.5-73.9,229.49,31.55,325.26-49.09,327.73-276,220.15,256.67,470,217.82,100.09-15.56,221.65-76.54,309.07-166.4"/><path class="cls-21" d="M24.82,401.6c49.8-70,251.87,58.36,347.89-29.84C710.07,61.87,568.62,614.27,820.11,570.33c98.52-17.22,221.65-76.54,309.07-166.4"/><path class="cls-22" d="M24.82,404.36c47.09-66.18,274.11,85.17,370.52-10.58,346.38-344,171.71,228.45,424.77,179.3,97-18.83,221.65-76.53,309.07-166.39"/><path class="cls-23" d="M24.82,406.74C74.62,336.7,346.94,464.18,443,376,780.32,66.09,568.62,619.41,820.11,575.47c98.52-17.22,221.65-76.54,309.07-166.4"/><path class="cls-24" d="M24.82,409.43c52.5-73.91,370,29.71,465.75-50.94C818.3,82.53,570.23,617,820.11,578.15c100.09-15.56,221.65-76.53,309.07-166.39"/><path class="cls-25" d="M24.82,412.48c55.21-77.77,417.65,2,513.36-71.11C855.58,99,571.87,615.08,820.11,581.21c101.68-13.87,221.65-76.54,309.07-166.4"/><path class="cls-26" d="M24.82,416c57.92-81.63,465.13-25.84,561-91.29,306.3-209.13-12.26,289,234.31,260,103.27-12.15,221.65-76.54,309.07-166.4"/><path class="cls-27" d="M24.82,420.05c60.63-85.5,512.39-53.77,608.6-111.47C927.82,132,575.22,613,820.11,588.78c104.87-10.38,221.65-76.54,309.07-166.4"/><path class="cls-28" d="M24.82,424.77C88.15,335.4,584.24,342.87,681,293.12,962.76,148.34,576.91,613.05,820.11,593.49c106.47-8.56,221.65-76.53,309.07-166.4"/><path class="cls-29" d="M24.82,430.25C90.86,337,631,319.9,728.65,278.42,997,164.39,578.61,614,820.11,599c108.08-6.71,221.65-76.53,309.07-166.4"/><path class="cls-30" d="M24.82,436.59c68.75-97.09,652.83-139.24,751.44-172,254.44-84.53-196,351.23,43.85,340.73,109.69-4.81,221.65-76.54,309.07-166.4"/><path class="cls-31" d="M24.82,443.89c71.46-101,699.35-168.76,799.06-192.18,240.35-56.44-241.87,367-3.77,360.9,111.29-2.86,221.65-76.53,309.07-166.39"/><path class="cls-32" d="M24.82,452.19C99,347.37,770.73,253.12,871.5,239.83,1098,210,583.69,623.19,820.11,620.91c112.89-.64,221.65-76.53,309.07-166.4"/><path class="cls-33" d="M24.82,461.52C101.69,352.84,817.58,231.23,919.11,229c213.66-4.72-333.75,398.85-99,401.26,114.49,1.17,221.65-76.54,309.07-166.4"/></g></g></svg>