<?xml version="1.0" encoding="utf-8"?>
<!-- Generator: Adobe Illustrator 22.1.0, SVG Export Plug-In . SVG Version: 6.00 Build 0)  -->
<svg version="1.1" id="Layer_1" xmlns="http://www.w3.org/2000/svg" xmlns:xlink="http://www.w3.org/1999/xlink" x="0px" y="0px"
	 viewBox="0 0 2481.5 1543.3" style="enable-background:new 0 0 2481.5 1543.3;" xml:space="preserve">
<style type="text/css">
	.st0{fill:none;stroke:#08FCFF;stroke-width:0.75;stroke-miterlimit:10;}
	.st1{fill:none;stroke:#10F8FF;stroke-width:0.75;stroke-miterlimit:10;}
	.st2{fill:none;stroke:#18F5FF;stroke-width:0.75;stroke-miterlimit:10;}
	.st3{fill:none;stroke:#20F2FF;stroke-width:0.75;stroke-miterlimit:10;}
	.st4{fill:none;stroke:#28EEFF;stroke-width:0.75;stroke-miterlimit:10;}
	.st5{fill:none;stroke:#2FEBFF;stroke-width:0.75;stroke-miterlimit:10;}
	.st6{fill:none;stroke:#37E7FF;stroke-width:0.75;stroke-miterlimit:10;}
	.st7{fill:none;stroke:#3FE4FF;stroke-width:0.75;stroke-miterlimit:10;}
	.st8{fill:none;stroke:#47E1FF;stroke-width:0.75;stroke-miterlimit:10;}
	.st9{fill:none;stroke:#4FDDFF;stroke-width:0.75;stroke-miterlimit:10;}
	.st10{fill:none;stroke:#57DAFF;stroke-width:0.75;stroke-miterlimit:10;}
	.st11{fill:none;stroke:#5ED2FD;stroke-width:0.75;stroke-miterlimit:10;}
	.st12{fill:none;stroke:#65CAFB;stroke-width:0.75;stroke-miterlimit:10;}
	.st13{fill:none;stroke:#6DC2F9;stroke-width:0.75;stroke-miterlimit:10;}
	.st14{fill:none;stroke:#74BAF7;stroke-width:0.75;stroke-miterlimit:10;}
	.st15{fill:none;stroke:#7BB2F5;stroke-width:0.75;stroke-miterlimit:10;}
	.st16{fill:none;stroke:#82ABF2;stroke-width:0.75;stroke-miterlimit:10;}
	.st17{fill:none;stroke:#89A3F0;stroke-width:0.75;stroke-miterlimit:10;}
	.st18{fill:none;stroke:#909BEE;stroke-width:0.75;stroke-miterlimit:10;}
	.st19{fill:none;stroke:#9893EC;stroke-width:0.75;stroke-miterlimit:10;}
	.st20{fill:none;stroke:#9F8BEA;stroke-width:0.75;stroke-miterlimit:10;}
	.st21{fill:none;stroke:#A683E8;stroke-width:0.75;stroke-miterlimit:10;}
	.st22{fill:none;stroke:#AE80DC;stroke-width:0.75;stroke-miterlimit:10;}
	.st23{fill:none;stroke:#B67DD1;stroke-width:0.75;stroke-miterlimit:10;}
	.st24{fill:none;stroke:#BE7AC5;stroke-width:0.75;stroke-miterlimit:10;}
	.st25{fill:none;stroke:#C677BA;stroke-width:0.75;stroke-miterlimit:10;}
	.st26{fill:none;stroke:#CE74AE;stroke-width:0.75;stroke-miterlimit:10;}
	.st27{fill:none;stroke:#D772A3;stroke-width:0.75;stroke-miterlimit:10;}
	.st28{fill:none;stroke:#DF6F97;stroke-width:0.75;stroke-miterlimit:10;}
	.st29{fill:none;stroke:#E76C8C;stroke-width:0.75;stroke-miterlimit:10;}
	.st30{fill:none;stroke:#EF6980;stroke-width:0.75;stroke-miterlimit:10;}
	.st31{fill:none;stroke:#F76675;stroke-width:0.75;stroke-miterlimit:10;}
	.st32{fill:none;stroke:#FF6369;stroke-width:0.75;stroke-miterlimit:10;}
</style>
<title>Asset 8</title>
<g id="Layer_2_1_">
	<g id="Layer_1-2">
		<path class="st0" d="M745-457c276.9-163.2,82.3-588,289.9-489.7C1460.3-745.2,1706,424.7,2153.9,683.1
			c215.8,124.5,500.9,78.5,765.1-15.8"/>
		<path class="st1" d="M709.6-330.5C986.4-493.7,834.3-917,1041.9-818.7C1456-622.5,1685.7,492.8,2110.1,765.8
			c201.8,129.8,468.6,101.4,719.8,23.5"/>
		<path class="st2" d="M673-202.5c276.9-163.2,167.1-584.9,374.7-486.6c402.8,190.8,616.6,1251.4,1017.5,1539.2
			c187.8,134.9,436.3,124.3,674.5,62.8"/>
		<path class="st3" d="M636.5-74.5C913.4-237.8,846-657.9,1053.6-559.6c391.5,185.5,589.6,1190.8,966.6,1493.9
			c173.9,139.8,404,147.2,629.2,102.1"/>
		<path class="st4" d="M592.1-34.7C869-197.9,844-616.5,1051.6-518.2c380.2,180.1,562.7,1129.9,915.8,1448.6
			c160.1,144.5,371.7,170.1,583.9,141.4"/>
		<path class="st5" d="M545.6-26.6c276.8-163.2,294.3-580.3,501.8-482c368.9,174.8,536,1068.5,865,1403.3
			c146.4,148.9,339.3,193.1,538.6,180.7"/>
		<path class="st6" d="M500.2-20.6C777-183.8,836.9-599.4,1044.4-501.1C1402-331.7,1554.1,505.6,1858.6,857
			c132.8,153.4,307,216,493.2,220"/>
		<path class="st7" d="M456.3-17.7c276.9-163.2,379.1-577.2,586.6-478.9c346.3,164,483.7,944.3,763.3,1312.8
			c119.4,157.4,274.7,238.9,448,259.3"/>
		<path class="st8" d="M414.4-18.7c276.8-163.1,421.5-575.7,629-477.4c335,158.7,458.2,881.5,712.5,1267.4
			c106.3,161.2,242.4,261.8,402.6,298.6"/>
		<path class="st9" d="M374.7-24.3c276.9-163.2,463.9-574.1,671.4-475.8c323.7,153.3,433.2,818.1,661.7,1222.1
			c93.3,164.9,210,284.8,357.3,337.9"/>
		<path class="st10" d="M337.3-34.2c276.9-163.2,506.2-572.6,713.8-474.3c436.8,206.9,451.5,1309.9,922.9,1554.2"/>
		<path class="st11" d="M363.7-32.2c265.6-156.5,496.9-486.2,710.6-397.6c18.7,7.7,34.8,20.3,54.2,25.6
			c326.2,89,325.7,618,509,981.7c107.8,213.8,234.5,403.4,416.7,474.6"/>
		<path class="st12" d="M391.4-33C645.9-182.9,879-432.9,1098.8-354c19.5,7,37.6,16.3,57,21.5c376.7,101.4,306.9,617.9,523.8,966.5
			c121.2,194.8,264.4,368.6,456.1,421.6"/>
		<path class="st13" d="M417.5-30.4c243.3-143.2,478.3-313.8,704-244.3c20.3,6.2,39.3,14.5,59.8,17.4
			c451.1,63.2,286.7,618.8,538.7,951.4c133.7,176.5,294.2,333.9,495.4,368.7"/>
		<path class="st14" d="M444-28.6C676-165.1,913.2-256.4,1144.8-196.2c21.2,5.5,41.2,12.5,62.6,13.3
			c527.9,19.6,265.3,621,553.5,936.3c145.4,159.1,324.2,299,534.8,315.7"/>
		<path class="st15" d="M471.3-28.5c220.9-129.9,460.2-142,697.6-91c22,4.7,43.1,10.3,65.3,9.2c606.3-29.3,242.6,624.6,568.3,921.2
			c156.4,142.5,354.1,264.2,574.2,262.7"/>
		<path class="st16" d="M500.1-31.4c209.7-123.3,451.2-56.3,694.3-14.4c22.9,3.9,45,7.9,68.1,5.1c685.7-83.3,219,629.9,583.2,906
			c167,126.7,383.9,229.5,613.5,209.8"/>
		<path class="st17" d="M530.8-37.9C729.3-154.5,973-8.7,1221.9,24.3c23.7,3.1,47,5.4,70.9,1c765.6-141.6,194.5,637,598,890.9
			c177.3,111.5,413.8,194.7,652.9,156.8"/>
		<path class="st18" d="M562.9-47.4c187.3-110,433.3,114.7,687.8,138.9c24.6,2.3,48.9,2.9,73.7-3.1
			c845.6-204.3,189,608.5,612.8,875.8c178.9,112.9,443.6,159.9,692.3,103.8"/>
		<path class="st19" d="M596.6-59.9c176.1-103.3,424.4,200,684.6,215.5c25.4,1.5,50.8,0.3,76.5-7.2
			c925.6-270.4,143.6,656.4,627.6,860.7c197.2,83.2,473.5,125.1,731.7,50.8"/>
		<path class="st20" d="M630.1-72c164.9-96.7,415.7,284.6,681.4,292.2c26.3,0.6,52.7-2.3,79.2-11.3
			c1005.2-339.7,117.5,668.5,642.4,845.5c207,69.8,503.4,90.3,771-2.1"/>
		<path class="st21" d="M663.6-84.3c169.1-99,458.3,468,760.2,353.4c1084.4-411.6,91.2,682.1,657.2,830.5
			c216.9,56.8,533.3,55.5,810.4-55.1"/>
		<path class="st22" d="M632-45.6c164.8-96.6,460.7,430.3,772.3,326.9c1029.2-341.5,184.4,632.2,704.1,785.1
			c139.3,41,114.9,93.3,286.9,104c148,9.2,342.2-36.8,494-97.4"/>
		<path class="st23" d="M617.9-41.9c160.5-94.1,462.8,392,784.4,300.4c973.8-277.2,274.8,589.3,751,739.8
			c170.7,53.9-10.3,142.7,193.3,172.6c155.1,22.9,393.8-38.8,558.1-104.4"/>
		<path class="st24" d="M607.8-46.1c156.2-91.6,464.7,352.7,796.5,273.9C2322.8,9.5,1767.9,778,2202.1,922.3
			c202.1,67.1-135.1,190.5,99.7,241.3c162.7,35.1,445.4-40.8,622.3-111.4"/>
		<path class="st25" d="M597.9-50.8c151.9-89.1,466.5,312.5,808.6,247.3c863.8-164.5,451.5,513.2,844.7,649.1
			c233.3,80.6-259.5,237.3,6.2,309.9c170.5,46.6,497-42.8,686.4-118.3"/>
		<path class="st26" d="M588-55.2c147.5-86.6,468.5,270.9,820.8,220.8c809.6-115.2,538.7,477.7,891.5,603.9
			c264.3,94.5-383.4,283.2-87.4,378.6c178.6,57.5,548.6-44.8,750.5-125.4"/>
		<path class="st27" d="M577.6-58.8C720.9-143,1048.4,169,1410.5,135.4c756.2-70,625.6,443,938.5,558.5
			c295.1,108.9-506.9,328.2-181,447.2c186.9,68.2,600.2-46.8,814.6-132.4"/>
		<path class="st28" d="M566.7-61.4c138.9-81.6,473.5,182.8,845,167.7c703.9-28.6,712.2,409,985.3,513.1
			c325.6,124.1-630.1,372.7-274.6,515.9c195.3,78.6,651.8-48.7,878.7-139.3"/>
		<path class="st29" d="M554.9-62.2C689.5-141.4,1032,73.4,1412.1,79c652.7,9.6,798.5,375.5,1032.2,467.8
			c355.5,140.4-753,416.6-368.2,584.5c203.8,88.9,703.3-50.7,942.9-146.3"/>
		<path class="st30" d="M541.2-59.2c130.3-76.7,481.6,85.8,869.3,114.7c602.9,44.9,884.6,342.3,1079,422.5
			c384.6,158.5-875.6,460.1-461.7,653.1c212.4,99.1,754.9-52.7,1007-153.3"/>
		<path class="st31" d="M519.9-41.1c126-74.2,487.5,33,881.4,88.2c554.6,77.7,970.6,309.4,1125.9,377.1
			c412.2,179.8-998.1,503.3-555.3,721.8c221.1,109.2,806.5-54.7,1071.1-160.3"/>
		<path class="st32" d="M492.7-11.3C769.5-174.5,2351.4,283.8,2559,382.1c436.8,206.9-1120.3,546.2-648.9,790.4
			c229.9,119.1,858.1-56.7,1135.2-167.3"/>
	</g>
</g>
</svg>
